<svg xmlns="http://www.w3.org/2000/svg" viewBox="0 0 24 24" aria-hidden="true"><rect x="2" y="2" width="20" height="20" rx="3.5" fill="#F58025"/><path fill="#fff" d="M7.5 6h3.7c1.8 0 3 .9 3 2.4 0 1-.5 1.7-1.4 2 1.2.3 1.9 1.1 1.9 2.3 0 1.7-1.3 2.8-3.3 2.8H7.5Zm2.2 3.6h1.1c.8 0 1.3-.4 1.3-1s-.5-1-1.3-1H9.7Zm0 4.2h1.3c.9 0 1.4-.4 1.4-1.1s-.5-1.2-1.4-1.2H9.7Zm6-7.8h2.2v3.2c.4-.5 1-.8 1.7-.8 1.6 0 2.6 1.3 2.6 3.2 0 2-1 3.3-2.6 3.3-.7 0-1.3-.3-1.8-.8v.7h-2.1Zm3.3 7c.7 0 1.2-.6 1.2-1.4s-.5-1.4-1.2-1.4-1.2.6-1.2 1.4.5 1.4 1.2 1.4Z"/></svg>
